<svg xmlns="http://www.w3.org/2000/svg" width="536" height="398" viewBox="0 0 536 398">
    <defs>
        <style>
            .cls-1{fill:#fff}.cls-3{fill:#ff6c20}.cls-4{fill:#2f2e41}.cls-6{fill:#3f3d56}
        </style>
    </defs>
    <g id="Group_1765" data-name="Group 1765" transform="translate(-1244 -3546)">
        <rect id="Rectangle_443" data-name="Rectangle 443" class="cls-1" width="536" height="398" rx="20" transform="translate(1244 3546)"/>
        <text id="Development" transform="translate(1382 3828.021)" style="fill:#0f0358;font-size:36px;font-family:Poppins-Bold,Poppins;font-weight:700"><tspan x="-125.118" y="38">Development</tspan></text>
        <g id="Group_917" data-name="Group 917" transform="translate(1410.479 3610.979)">
            <path id="Path_578" data-name="Path 578" class="cls-3" d="M713.879 536.17a2.327 2.327 0 0 0 2.335-.428l3.695-3.222a2.328 2.328 0 0 0 .224-3.281l-26.858-30.8a2.328 2.328 0 0 0-3.281-.224l-3.695 3.223a2.328 2.328 0 0 0-.224 3.281l26.858 30.8a2.311 2.311 0 0 0 .946.652z" transform="translate(-554.816 -385.353)"/>
            <path id="Path_579" data-name="Path 579" class="cls-3" d="M585.836 457.666a2.336 2.336 0 0 0 .712-.112 2.309 2.309 0 0 0 1.359-1.148l2.247-4.358a2.327 2.327 0 0 0-1-3.132l-36.319-18.725a2.328 2.328 0 0 0-3.132 1l-2.247 4.358a2.327 2.327 0 0 0 1 3.132l36.319 18.725a2.31 2.31 0 0 0 1.061.26z" transform="translate(-463.687 -340.737)"/>
            <path id="Path_580" data-name="Path 580" class="cls-4" d="M623.853 475.871a2.332 2.332 0 0 0 2.083-1.284l2.2-4.382a2.321 2.321 0 0 0 .18-1.6 2.227 2.227 0 0 0-.051-.177 8.027 8.027 0 0 1-.149-.584c-.178-.771-.4-1.73-.852-1.957l-15.958-9.673a2.324 2.324 0 0 0-3.126 1.015l-.007.013-4.026 8.3a2.327 2.327 0 0 0 1.036 3.119l17.645 6.966a2.277 2.277 0 0 0 1.025.243z" transform="translate(-501.049 -357.887)"/>
            <circle id="Ellipse_139" data-name="Ellipse 139" class="cls-3" cx="17.778" cy="17.778" r="17.778" transform="translate(111.651 60.924)"/>
            <path id="Path_581" data-name="Path 581" class="cls-3" d="M687.482 640.914h4.9a2.328 2.328 0 0 0 2.325-2.325v-41.526a2.328 2.328 0 0 0-2.325-2.325h-4.9a2.328 2.328 0 0 0-2.325 2.325v41.526a2.328 2.328 0 0 0 2.325 2.325z" transform="translate(-554.587 -449.325)"/>
            <path id="Path_582" data-name="Path 582" class="cls-3" d="M617.858 594.756a2.324 2.324 0 0 0 1.895-.972l23.766-33.239a2.327 2.327 0 0 0-.539-3.244l-3.988-2.852a2.328 2.328 0 0 0-3.244.539l-23.766 33.239a2.328 2.328 0 0 0 .539 3.244l3.988 2.852a2.313 2.313 0 0 0 1.349.433z" transform="translate(-506.088 -422.494)"/>
            <path id="Path_583" data-name="Path 583" class="cls-3" d="M623.873 673.624a3.2 3.2 0 0 0 1.4-.351l4.389-2.185c1.148-.572 1.78-1.642 1.41-2.386l-11.312-22.72c-.37-.744-1.605-.884-2.753-.313l-4.389 2.185a3.1 3.1 0 0 0-1.258 1.094 1.314 1.314 0 0 0-.152 1.292l11.312 22.72a1.425 1.425 0 0 0 1.353.664z" transform="translate(-505.798 -482.651)"/>
            <path id="Path_584" data-name="Path 584" class="cls-4" d="M684.863 507.763a2.332 2.332 0 0 0 2.435-.527l6.651-6.382a2.325 2.325 0 0 0 .027-3.288l-14.137-12.222c-.345-.352-1.326-.267-2.114-.2-.247.021-.461.04-.6.039-.062 0-.123 0-.184.006a2.321 2.321 0 0 0-1.465.664l-3.491 3.442a2.328 2.328 0 0 0-.023 3.288L684 507.2a2.344 2.344 0 0 0 .863.561z" transform="translate(-545.451 -377.074)"/>
            <path id="Path_585" data-name="Path 585" class="cls-4" d="m647.895 396.636.018-.664a5.5 5.5 0 0 1-3.144-.71 2.042 2.042 0 0 1-.791-1.5 1.167 1.167 0 0 1 .383-.961 2.012 2.012 0 0 1 2.056-.018l.55.252-1.054-7.7-.658.09.9 6.553a2.345 2.345 0 0 0-2.218.319 1.817 1.817 0 0 0-.618 1.492 2.7 2.7 0 0 0 1.063 2.017 6.118 6.118 0 0 0 3.513.83z" transform="translate(-527.015 -311.346)"/>
            <path id="Rectangle_479" data-name="Rectangle 479" class="cls-4" transform="translate(111.406 74.637)" d="M0 0h3.578v.664H0z"/>
            <path id="Rectangle_480" data-name="Rectangle 480" class="cls-4" transform="translate(122.699 74.637)" d="M0 0h3.578v.664H0z"/>
            <path id="Path_586" data-name="Path 586" class="cls-4" d="m609.19 528.543 19.393-55.894a7.35 7.35 0 0 1-1.047-4.133v-1.486c0-2.667.967-4.829 2.159-4.832H637c1.192 0 2.158 2.165 2.159 4.832v1.487a6.777 6.777 0 0 1-1.243 4.369l9.845 37.239a2.155 2.155 0 0 1-1.87 3.239l-34.834 18.42a2.159 2.159 0 0 1-1.87-3.239z" transform="translate(-504.343 -361.995)"/>
            <path id="Path_587" data-name="Path 587" class="cls-1" d="M372.323 266.137a14.741 14.741 0 0 1-6.965-8.751 45.522 45.522 0 1 1 21.4-17.183 14.841 14.841 0 0 1-3.158 27.288 14.751 14.751 0 0 1-11.277-1.354z" transform="translate(-303.035 -169.1)"/>
            <path id="Path_588" data-name="Path 588" d="M381.854 270.243a11.014 11.014 0 0 1-4.8-6.5 3.7 3.7 0 0 0-4.921-2.448l-.226.089a41.429 41.429 0 1 1 19.222-15.434l-.135.2a3.7 3.7 0 0 0 1.327 5.335 11.088 11.088 0 0 1 5.5 6.7 10.75 10.75 0 0 1-1.647 9.2 10.568 10.568 0 0 1-4.877 3.735 10.868 10.868 0 0 1-3.838.7 10.724 10.724 0 0 1-5.606-1.587z" transform="translate(-310.91 -176.979)" style="fill:#f0f0f0"/>
            <path id="Path_589" data-name="Path 589" class="cls-6" d="M371.5 265.776a15.507 15.507 0 0 1-1.5-.96 25.073 25.073 0 0 0-17.171-4.892 45.861 45.861 0 1 1 37.991-28.612 14.868 14.868 0 0 0 1.046 13.278 15.195 15.195 0 0 1-12.949 23.141 15.175 15.175 0 0 1-7.417-1.955zm-60.476-76.514a44.84 44.84 0 0 0 53.6 66.762l.527-.207.153.546a14.158 14.158 0 1 0 20.308-16.306l-.5-.267.316-.47a44.84 44.84 0 1 0-74.409-50.058z" transform="translate(-302.377 -168.442)"/>
            <circle id="Ellipse_140" data-name="Ellipse 140" class="cls-3" cx="5.313" cy="5.313" r="5.313" transform="translate(59.241 40.57)"/>
            <circle id="Ellipse_141" data-name="Ellipse 141" class="cls-3" cx="5.313" cy="5.313" r="5.313" transform="translate(41.115 40.57)"/>
            <circle id="Ellipse_142" data-name="Ellipse 142" class="cls-3" cx="5.313" cy="5.313" r="5.313" transform="translate(22.988 40.57)"/>
            <path id="Path_590" data-name="Path 590" class="cls-4" d="M665.363 322.99a3.459 3.459 0 0 0-3.178-1.813 11.328 11.328 0 0 0-4.7 1.263 10.6 10.6 0 0 1-4.851 1.028 8.881 8.881 0 0 1-4.229-1.463 8.2 8.2 0 0 1-3.695-7.577 8.524 8.524 0 0 1 4.729-7.008 8.789 8.789 0 0 1 9.491 1.49l-.873.362c-.364-3.629 1.61-7.081 4.38-9.3a22.4 22.4 0 0 1 10.321-4.287 22.92 22.92 0 0 1 11.26.847 22.315 22.315 0 0 1 8.063 5.015 23.053 23.053 0 0 1 6.978 17.935 25.508 25.508 0 0 1-2.742 10.061 26.268 26.268 0 0 1-6.418 7.992c-5.262 4.483-11.782 7.132-18.207 9.473q-1.2.437-2.4.864c-.621.222-.889-.767-.272-.987 6.2-2.211 12.508-4.508 17.921-8.339a27.716 27.716 0 0 0 6.892-6.825 24.417 24.417 0 0 0 3.838-9.268 21.987 21.987 0 0 0-11.429-23.86 20.675 20.675 0 0 0-9.892-2.223 24.128 24.128 0 0 0-10.687 2.713c-3.062 1.619-5.73 4.211-6.46 7.709a8.113 8.113 0 0 0-.12 2.474c.047.468-.577.639-.873.362a7.757 7.757 0 0 0-7.871-1.486 7.437 7.437 0 0 0-4.608 6.339 7.215 7.215 0 0 0 3.6 6.89 7.7 7.7 0 0 0 3.963 1.09 12.628 12.628 0 0 0 4.61-1.3 9.5 9.5 0 0 1 4.917-.958 4.242 4.242 0 0 1 3.434 2.261c.27.6-.612 1.116-.884.517z" transform="translate(-527.914 -252.057)"/>
            <path id="Path_591" data-name="Path 591" class="cls-6" d="M448.353 729.989h152.576a.406.406 0 0 0 0-.812H448.353a.406.406 0 1 0 0 .812z" transform="translate(-398.292 -537.906)"/>
        </g>
    </g>
</svg>
