<?xml version="1.0" encoding="utf-8"?>
<!-- Generator: Adobe Illustrator 25.2.1, SVG Export Plug-In . SVG Version: 6.00 Build 0)  -->
<svg version="1.1" xmlns="http://www.w3.org/2000/svg" xmlns:xlink="http://www.w3.org/1999/xlink" x="0px" y="0px"
	 viewBox="0 0 1366 768" style="enable-background:new 0 0 1366 768;" xml:space="preserve">
<style type="text/css">
	.st0{display:none;}
	.st1{display:inline;}
	.st2{fill:#00632B;}
	.st3{fill:#800037;}
	.st4{fill:#FF6C20;}
	.st5{fill:#0F0358;}
	.st6{fill:#FFFFFF;}
</style>
<g id="Layer_2" class="st0">
	<g class="st1">
		<path class="st2" d="M995,429c0,0-8.5-132.5-63.5-191.5c76.6,198.8-27.8,262.3-29,263l1.3-2c9.4-14.6,65.1-108.6,13.7-227
			c36.8,199.6-99.1,263.1-101,264c121-108,94-286-25-375.4c-45-63.5-202-83.5-293,0.4c0.5-1.2,35.8-80,204.2-77.5
			c-68.1-9.3-121-0.3-122.7,0c0,0,0.1,0,0.1,0c230.4-74.9,415.7,76.9,419.3,282.8C999.9,386.3,998.4,407.5,995,429z"/>
		<path class="st3" d="M753,692.3c-30.7,2.1-62.8-1.5-95.5-11.8c65,2,157.6-5.5,207-72c-62,57-222,76-299,11
			c13.1,6.8,35.7,13.2,61.8,17.6l1.9,0.3c51.4,8.4,115.9,8.8,149.3-10.9c-96,16-193.6-23.5-241-99c117,113,275,89,365-27l0,0
			c1.2-0.7,105.5-64.1,29-263c55,59,63.5,191.5,63.5,191.5c3.4-21.5,4.9-42.7,4.5-63.3l0.1,0.2C1028.5,519.5,912.7,681.5,753,692.3z
			"/>
		<path class="st4" d="M657.5,680.5c32.7,10.3,64.8,13.8,95.5,11.8c-219.8,60.2-367.5-104.4-381.5-247.7c0,0,0,0,0,0
			c-2.8-28.5-0.2-56.1,8-81c-2.2,104.6,33.2,169.5,86,216c-67.4-89.6-95.4-188.9-26-312c-12,41.8-19,80.1-18.6,116.5v0.1
			c0.4,35.8,7.8,69.8,24.6,103.4c-16.3-109,14.9-186.2,81-240c-117,158-50,331,100.8,389.6c-26.1-4.4-48.7-10.8-61.8-17.6
			c77,65,237,46,299-11C815.1,675,722.5,682.5,657.5,680.5z"/>
		<path class="st5" d="M822.5,235.5c-182-154-388-23-401.6,148.5c-0.4-36.4,6.6-74.7,18.6-116.5c-69.4,123.1-41.4,222.4,26,312
			c-52.8-46.5-88.2-111.4-86-216c-8.3,24.9-10.8,52.5-8,81c-47-166,65-336,208.5-361.5c0,0,0,0,0,0c1.7-0.3,54.6-9.3,122.7,0
			c-168.4-2.5-203.7,76.3-204.2,77.5c91-84,248-64,293-0.4c-78.3-45.1-149.2-51.6-212-15.5C681.2,130.1,764.7,155.1,822.5,235.5z"/>
	</g>
</g>
<g id="Layer_3">
	<g>
		<g>
			<path class="st2" d="M851.3,341c0,0-4.5-70.5-33.8-101.9c40.7,105.8-14.8,139.6-15.4,140l0.7-1c5-7.7,34.6-57.8,7.3-120.8
				c19.6,106.2-52.7,140-53.7,140.5c64.4-57.5,50-152.2-13.3-199.8c-23.9-33.8-107.5-44.5-155.9,0.2c0.3-0.6,19.1-42.6,108.7-41.2
				c-36.2-5-64.4-0.2-65.3,0c0,0,0,0,0.1,0c122.6-39.9,221.2,40.9,223.2,150.5C853.9,318.3,853.1,329.6,851.3,341z"/>
			<path class="st3" d="M722.5,481.1c-16.3,1.1-33.4-0.8-50.8-6.3c34.6,1.1,83.9-2.9,110.2-38.3c-33,30.3-118.1,40.4-159.1,5.9
				c7,3.6,19,7,32.9,9.4l1,0.2c27.4,4.4,61.7,4.7,79.5-5.8c-51.1,8.5-103-12.5-128.2-52.7c62.3,60.1,146.3,47.4,194.2-14.4l0,0
				c0.6-0.4,56.2-34.1,15.4-140c29.3,31.4,33.8,101.9,33.8,101.9c1.8-11.5,2.6-22.7,2.4-33.7l0,0.1
				C869.1,389.2,807.5,475.4,722.5,481.1z"/>
			<path class="st4" d="M671.7,474.8c17.4,5.5,34.5,7.4,50.8,6.3c-117,32-195.6-55.6-203-131.8c0,0,0,0,0,0
				c-1.5-15.2-0.1-29.9,4.3-43.1c-1.2,55.7,17.7,90.2,45.8,114.9c-35.9-47.7-50.8-100.5-13.8-166c-6.4,22.2-10.1,42.6-9.9,62v0
				c0.2,19,4.2,37.1,13.1,55c-8.7-58,7.9-99.1,43.1-127.7c-62.3,84.1-26.6,176.1,53.6,207.3c-13.9-2.3-25.9-5.7-32.9-9.4
				c41,34.6,126.1,24.5,159.1-5.9C755.6,471.9,706.3,475.9,671.7,474.8z"/>
			<path class="st5" d="M759.5,238c-96.9-82-206.5-12.2-213.7,79c-0.2-19.4,3.5-39.8,9.9-62c-36.9,65.5-22.1,118.3,13.8,166
				c-28.1-24.7-46.9-59.3-45.8-114.9c-4.4,13.2-5.8,27.9-4.3,43.1c-25-88.3,34.6-178.8,111-192.4c0,0,0,0,0,0c0.9-0.2,29.1-5,65.3,0
				c-89.6-1.3-108.4,40.6-108.7,41.2c48.4-44.7,132-34.1,155.9-0.2c-41.7-24-79.4-27.5-112.8-8.3C684.3,182,728.7,195.3,759.5,238z"
				/>
		</g>
		<g>
			<path class="st4" d="M354.6,539.6h24.9v43.7c0,9.2-0.8,16.2-2.4,21c-1.6,4.8-4.9,8.9-9.8,12.2c-4.9,3.3-11.2,5-18.9,5
				c-8.1,0-14.4-1.1-18.9-3.3c-4.5-2.2-7.9-5.4-10.3-9.6c-2.4-4.2-3.9-9.5-4.3-15.7l23.8-3.2c0,3.5,0.3,6.2,0.9,7.9
				c0.6,1.7,1.6,3.1,3,4.2c1,0.7,2.3,1,4.1,1c2.8,0,4.8-1,6.1-3.1c1.3-2.1,1.9-5.5,1.9-10.4V539.6z"/>
			<path class="st4" d="M413.1,580.7l-21.4-2.3c0.8-3.7,2-6.7,3.5-8.8c1.5-2.1,3.7-4,6.6-5.6c2-1.1,4.9-2,8.5-2.6
				c3.6-0.6,7.5-0.9,11.6-0.9c6.7,0,12.1,0.4,16.1,1.1c4.1,0.8,7.4,2.3,10.2,4.7c1.9,1.6,3.4,4,4.5,7s1.6,5.9,1.6,8.6v25.7
				c0,2.7,0.2,4.9,0.5,6.4c0.3,1.6,1.1,3.5,2.3,6h-21c-0.8-1.5-1.4-2.6-1.6-3.4c-0.3-0.8-0.5-2-0.8-3.7c-2.9,2.8-5.8,4.8-8.7,6
				c-4,1.6-8.5,2.4-13.8,2.4c-7,0-12.2-1.6-15.8-4.8c-3.6-3.2-5.4-7.2-5.4-11.9c0-4.4,1.3-8.1,3.9-10.9c2.6-2.9,7.4-5,14.4-6.4
				c8.4-1.7,13.8-2.9,16.3-3.5c2.5-0.7,5.1-1.6,7.9-2.7c0-2.7-0.6-4.7-1.7-5.8c-1.1-1.1-3.1-1.6-6-1.6c-3.7,0-6.4,0.6-8.2,1.8
				C415.1,576.4,413.9,578.2,413.1,580.7z M432.4,592.4c-3.1,1.1-6.3,2.1-9.6,2.9c-4.5,1.2-7.4,2.4-8.6,3.6
				c-1.2,1.2-1.9,2.6-1.9,4.1c0,1.8,0.6,3.2,1.8,4.3s3,1.7,5.4,1.7c2.5,0,4.8-0.6,6.9-1.8c2.1-1.2,3.7-2.7,4.6-4.4
				c0.9-1.7,1.3-4,1.3-6.8V592.4z"/>
			<path class="st4" d="M492.7,539.6v22.2H505v16.4h-12.3v20.7c0,2.5,0.2,4.1,0.7,4.9c0.7,1.2,2,1.9,3.8,1.9c1.6,0,4-0.5,6.9-1.4
				l1.6,15.4c-5.5,1.2-10.7,1.8-15.5,1.8c-5.6,0-9.7-0.7-12.3-2.1c-2.6-1.4-4.6-3.6-5.8-6.5c-1.3-2.9-1.9-7.6-1.9-14.1v-20.5h-8.2
				v-16.4h8.2v-10.7L492.7,539.6z"/>
			<path class="st4" d="M516.5,539.6h22.3v15.2h-22.3V539.6z M516.5,561.8h22.3v58.3h-22.3V561.8z"/>
			<path class="st4" d="M549.2,603.9l22.2-2.1c0.9,2.6,2.2,4.5,3.8,5.7c1.6,1.1,3.8,1.7,6.6,1.7c3,0,5.3-0.6,7-1.9
				c1.3-0.9,1.9-2.1,1.9-3.6c0-1.6-0.8-2.8-2.5-3.7c-1.2-0.6-4.4-1.4-9.6-2.3c-7.8-1.4-13.1-2.6-16.2-3.8c-3-1.2-5.6-3.1-7.6-5.8
				c-2.1-2.7-3.1-5.9-3.1-9.4c0-3.8,1.1-7.1,3.3-9.9c2.2-2.8,5.3-4.9,9.2-6.2c3.9-1.4,9.2-2.1,15.8-2.1c7,0,12.1,0.5,15.4,1.6
				c3.3,1.1,6.1,2.7,8.3,4.9c2.2,2.2,4.1,5.3,5.5,9.1l-21.2,2.1c-0.5-1.9-1.5-3.2-2.7-4.1c-1.8-1.2-3.9-1.8-6.4-1.8
				c-2.5,0-4.4,0.4-5.5,1.3c-1.2,0.9-1.7,2-1.7,3.3c0,1.4,0.7,2.5,2.2,3.2c1.5,0.7,4.6,1.4,9.6,2c7.4,0.8,13,2,16.6,3.5
				c3.6,1.5,6.4,3.6,8.3,6.4c1.9,2.8,2.9,5.8,2.9,9.2c0,3.4-1,6.6-3,9.8c-2,3.2-5.2,5.7-9.6,7.6c-4.4,1.9-10.3,2.8-17.9,2.8
				c-10.6,0-18.2-1.5-22.8-4.6C553.3,613.8,550.4,609.5,549.2,603.9z"/>
			<path class="st4" d="M656.7,539.6h32.7l12.6,49l12.5-49h32.7v80.5h-20.4v-61.4l-15.7,61.4h-18.4l-15.7-61.4v61.4h-20.4V539.6z"/>
			<path class="st4" d="M758.9,591.1c0-8.9,3-16.2,9-22c6-5.8,14.1-8.6,24.3-8.6c11.7,0,20.5,3.4,26.5,10.2
				c4.8,5.5,7.2,12.2,7.2,20.2c0,9-3,16.3-8.9,22c-5.9,5.7-14.2,8.6-24.7,8.6c-9.4,0-16.9-2.4-22.7-7.1
				C762.4,608.4,758.9,600.7,758.9,591.1z M781.3,591.1c0,5.2,1.1,9,3.2,11.5c2.1,2.5,4.7,3.7,7.9,3.7c3.2,0,5.9-1.2,7.9-3.7
				c2.1-2.5,3.1-6.4,3.1-11.8c0-5-1-8.8-3.1-11.3c-2.1-2.5-4.7-3.7-7.7-3.7c-3.3,0-5.9,1.3-8.1,3.8
				C782.3,582.1,781.3,585.9,781.3,591.1z"/>
			<path class="st4" d="M836.7,539.6h22.6v27.9c2.2-2.3,4.8-4.1,7.6-5.3c2.8-1.2,6-1.8,9.4-1.8c7.1,0,13,2.6,17.6,7.7
				c4.6,5.1,7,12.4,7,22c0,6.4-1.1,12-3.2,16.8c-2.1,4.9-5.1,8.5-8.8,10.9c-3.8,2.4-7.9,3.6-12.5,3.6c-3.9,0-7.5-0.8-10.8-2.5
				c-2.5-1.3-5.1-3.8-8-7.4v8.6h-20.9V539.6z M859.1,590.8c0,5,0.9,8.6,2.8,10.9c1.9,2.3,4.3,3.4,7.2,3.4c2.7,0,4.9-1.1,6.7-3.3
				c1.8-2.2,2.7-5.9,2.7-11.2c0-4.6-0.9-8-2.7-10.2c-1.8-2.2-3.9-3.2-6.4-3.2c-3,0-5.5,1.1-7.4,3.4
				C860.1,582.8,859.1,586.2,859.1,590.8z"/>
			<path class="st4" d="M912.4,539.6h22.3v15.2h-22.3V539.6z M912.4,561.8h22.3v58.3h-22.3V561.8z"/>
			<path class="st4" d="M949.8,539.6h22.4v80.5h-22.4V539.6z"/>
			<path class="st4" d="M1051.2,596.5h-44.8c0.4,3.6,1.4,6.3,2.9,8c2.2,2.5,5,3.8,8.5,3.8c2.2,0,4.3-0.5,6.3-1.7
				c1.2-0.7,2.5-1.9,3.9-3.7l22,2c-3.4,5.9-7.4,10.1-12.2,12.6c-4.8,2.5-11.6,3.8-20.5,3.8c-7.7,0-13.8-1.1-18.2-3.3
				c-4.4-2.2-8.1-5.6-11-10.4s-4.4-10.3-4.4-16.7c0-9.1,2.9-16.5,8.8-22.1c5.8-5.6,13.9-8.5,24.2-8.5c8.3,0,14.9,1.3,19.8,3.8
				c4.8,2.5,8.5,6.2,11,11c2.5,4.8,3.8,11,3.8,18.7V596.5z M1028.5,585.8c-0.4-4.3-1.6-7.4-3.5-9.3c-1.9-1.9-4.4-2.8-7.4-2.8
				c-3.5,0-6.4,1.4-8.5,4.2c-1.4,1.8-2.2,4.4-2.6,7.9H1028.5z"/>
		</g>
	</g>
</g>
<g id="Layer_4">
	<g>
		<g>
			<path class="st6" d="M379.2,2069.2c0,0-2.7-41.6-19.9-60.1c24,62.4-8.7,82.3-9.1,82.6l0.4-0.6c3-4.6,20.4-34.1,4.3-71.3
				c11.5,62.7-31.1,82.6-31.7,82.9c38-33.9,29.5-89.8-7.9-117.9c-14.1-20-63.4-26.2-92,0.1c0.2-0.4,11.2-25.1,64.1-24.3
				c-21.4-2.9-38-0.1-38.5,0c0,0,0,0,0,0c72.3-23.5,130.5,24.1,131.7,88.8C380.7,2055.8,380.2,2062.4,379.2,2069.2z"/>
			<path class="st6" d="M303.2,2151.9c-9.6,0.6-19.7-0.5-30-3.7c20.4,0.6,49.5-1.7,65-22.6c-19.5,17.9-69.7,23.9-93.9,3.5
				c4.1,2.1,11.2,4.2,19.4,5.5l0.6,0.1c16.1,2.6,36.4,2.8,46.9-3.4c-30.1,5-60.8-7.4-75.7-31.1c36.7,35.5,86.3,27.9,114.6-8.5l0,0
				c0.4-0.2,33.1-20.1,9.1-82.6c17.3,18.5,19.9,60.1,19.9,60.1c1.1-6.8,1.5-13.4,1.4-19.9l0,0.1
				C389.7,2097.6,353.3,2148.5,303.2,2151.9z"/>
			<path class="st6" d="M273.2,2148.2c10.3,3.2,20.3,4.3,30,3.7c-69,18.9-115.4-32.8-119.8-77.8c0,0,0,0,0,0
				c-0.9-8.9-0.1-17.6,2.5-25.4c-0.7,32.8,10.4,53.2,27,67.8c-21.2-28.1-29.9-59.3-8.2-98c-3.8,13.1-5.9,25.1-5.8,36.6v0
				c0.1,11.2,2.5,21.9,7.7,32.5c-5.1-34.2,4.7-58.5,25.4-75.4c-36.7,49.6-15.7,103.9,31.6,122.3c-8.2-1.4-15.3-3.4-19.4-5.5
				c24.2,20.4,74.4,14.4,93.9-3.5C322.7,2146.4,293.6,2148.8,273.2,2148.2z"/>
			<path class="st6" d="M325,2008.4c-57.1-48.3-121.8-7.2-126.1,46.6c-0.1-11.4,2.1-23.5,5.8-36.6c-21.8,38.6-13,69.8,8.2,98
				c-16.6-14.6-27.7-35-27-67.8c-2.6,7.8-3.4,16.5-2.5,25.4c-14.7-52.1,20.4-105.5,65.5-113.5c0,0,0,0,0,0c0.5-0.1,17.1-2.9,38.5,0
				c-52.9-0.8-64,23.9-64.1,24.3c28.6-26.4,77.9-20.1,92-0.1c-24.6-14.2-46.9-16.2-66.6-4.9C280.7,1975.4,306.9,1983.2,325,2008.4z"
				/>
		</g>
		<g>
			<path class="st6" d="M471.1,2012.9h25.7v45.1c0,9.5-0.8,16.7-2.5,21.6s-5.1,9.1-10.1,12.6c-5.1,3.4-11.6,5.2-19.5,5.2
				c-8.4,0-14.9-1.1-19.5-3.4c-4.6-2.3-8.2-5.6-10.7-9.9c-2.5-4.4-4-9.8-4.4-16.2l24.5-3.3c0,3.7,0.4,6.4,1,8.2
				c0.6,1.8,1.6,3.2,3.1,4.3c1,0.7,2.4,1.1,4.2,1.1c2.9,0,5-1.1,6.3-3.2c1.3-2.1,2-5.7,2-10.8V2012.9z"/>
			<path class="st6" d="M531.4,2055.3l-22-2.3c0.8-3.9,2-6.9,3.6-9.1c1.6-2.2,3.8-4.1,6.8-5.7c2.1-1.2,5-2.1,8.7-2.7
				c3.7-0.6,7.7-1,12-1c6.9,0,12.5,0.4,16.7,1.2c4.2,0.8,7.7,2.4,10.5,4.8c2,1.7,3.5,4.1,4.6,7.2s1.7,6.1,1.7,8.9v26.6
				c0,2.8,0.2,5.1,0.5,6.7c0.4,1.6,1.1,3.7,2.4,6.1h-21.6c-0.9-1.6-1.4-2.7-1.7-3.5c-0.3-0.8-0.5-2.1-0.8-3.8c-3,2.9-6,5-9,6.2
				c-4.1,1.7-8.8,2.5-14.2,2.5c-7.2,0-12.6-1.7-16.3-5c-3.7-3.3-5.6-7.4-5.6-12.3c0-4.6,1.3-8.3,4-11.3c2.7-2.9,7.6-5.1,14.8-6.6
				c8.7-1.7,14.3-3,16.8-3.7c2.6-0.7,5.3-1.6,8.2-2.7c0-2.8-0.6-4.8-1.8-5.9c-1.2-1.1-3.2-1.7-6.2-1.7c-3.8,0-6.6,0.6-8.5,1.8
				C533.5,2050.9,532.3,2052.7,531.4,2055.3z M551.4,2067.4c-3.2,1.1-6.5,2.1-9.9,3c-4.7,1.2-7.6,2.5-8.9,3.7
				c-1.3,1.2-1.9,2.7-1.9,4.3c0,1.8,0.6,3.3,1.9,4.4c1.3,1.2,3.1,1.7,5.6,1.7c2.6,0,5-0.6,7.2-1.9c2.2-1.2,3.8-2.8,4.7-4.6
				c0.9-1.8,1.4-4.1,1.4-7V2067.4z"/>
			<path class="st6" d="M613.6,2012.9v22.9h12.7v16.9h-12.7v21.3c0,2.6,0.2,4.3,0.7,5.1c0.8,1.3,2.1,1.9,4,1.9
				c1.7,0,4.1-0.5,7.1-1.5l1.7,15.9c-5.7,1.2-11,1.9-16,1.9c-5.7,0-10-0.7-12.7-2.2c-2.7-1.5-4.7-3.7-6-6.7s-2-7.9-2-14.6v-21.2H582
				v-16.9h8.5v-11L613.6,2012.9z"/>
			<path class="st6" d="M638.2,2012.9h23.1v15.7h-23.1V2012.9z M638.2,2035.8h23.1v60.2h-23.1V2035.8z"/>
			<path class="st6" d="M671.9,2079.3l22.9-2.2c0.9,2.7,2.3,4.7,4,5.8c1.7,1.2,4,1.8,6.8,1.8c3.1,0,5.5-0.7,7.2-2c1.3-1,2-2.2,2-3.7
				c0-1.7-0.9-2.9-2.6-3.8c-1.2-0.6-4.6-1.4-9.9-2.4c-8-1.4-13.6-2.7-16.7-3.9c-3.1-1.2-5.7-3.2-7.9-6c-2.1-2.8-3.2-6.1-3.2-9.7
				c0-4,1.2-7.4,3.5-10.2c2.3-2.9,5.5-5,9.5-6.4c4-1.4,9.5-2.1,16.3-2.1c7.2,0,12.5,0.5,15.9,1.6c3.4,1.1,6.3,2.8,8.6,5.1
				c2.3,2.3,4.2,5.4,5.7,9.4l-21.9,2.2c-0.6-1.9-1.5-3.3-2.8-4.2c-1.8-1.2-4-1.8-6.6-1.8c-2.6,0-4.5,0.5-5.7,1.4
				c-1.2,0.9-1.8,2-1.8,3.4c0,1.5,0.8,2.6,2.3,3.3c1.5,0.8,4.8,1.4,9.9,2c7.7,0.9,13.4,2.1,17.1,3.6c3.7,1.6,6.6,3.8,8.6,6.6
				c2,2.9,3,6,3,9.5c0,3.5-1,6.8-3.1,10.1c-2.1,3.3-5.4,5.9-9.9,7.8c-4.5,1.9-10.7,2.9-18.4,2.9c-11,0-18.8-1.6-23.5-4.7
				C676.2,2089.5,673.2,2085,671.9,2079.3z"/>
			<path class="st6" d="M782.9,2012.9h33.8l13,50.5l12.9-50.5h33.7v83.1h-21v-63.3l-16.2,63.3h-19l-16.2-63.3v63.3h-21V2012.9z"/>
			<path class="st6" d="M888.3,2066.1c0-9.2,3.1-16.7,9.3-22.7c6.2-5.9,14.6-8.9,25.1-8.9c12,0,21.2,3.5,27.3,10.5
				c4.9,5.6,7.4,12.6,7.4,20.8c0,9.3-3.1,16.8-9.2,22.7c-6.1,5.9-14.6,8.9-25.5,8.9c-9.7,0-17.5-2.5-23.5-7.4
				C892,2083.9,888.3,2075.9,888.3,2066.1z M911.4,2066c0,5.4,1.1,9.3,3.3,11.9c2.2,2.6,4.9,3.9,8.2,3.9c3.3,0,6.1-1.3,8.2-3.8
				c2.1-2.5,3.2-6.6,3.2-12.2c0-5.2-1.1-9.1-3.2-11.6c-2.2-2.5-4.8-3.8-8-3.8c-3.4,0-6.1,1.3-8.3,3.9
				C912.5,2056.8,911.4,2060.7,911.4,2066z"/>
			<path class="st6" d="M968.6,2012.9h23.3v28.8c2.3-2.4,4.9-4.2,7.8-5.4c2.9-1.2,6.2-1.8,9.7-1.8c7.3,0,13.4,2.6,18.2,7.9
				c4.8,5.3,7.2,12.8,7.2,22.7c0,6.6-1.1,12.4-3.3,17.4c-2.2,5-5.2,8.7-9.1,11.2c-3.9,2.5-8.2,3.7-12.9,3.7c-4,0-7.7-0.9-11.1-2.6
				c-2.5-1.4-5.3-3.9-8.3-7.6v8.9h-21.6V2012.9z M991.8,2065.7c0,5.2,1,8.9,2.9,11.2c1.9,2.3,4.4,3.5,7.4,3.5c2.8,0,5.1-1.1,6.9-3.4
				s2.8-6.1,2.8-11.5c0-4.8-0.9-8.3-2.7-10.5s-4.1-3.3-6.7-3.3c-3.1,0-5.7,1.2-7.7,3.5C992.7,2057.5,991.8,2061,991.8,2065.7z"/>
			<path class="st6" d="M1046.8,2012.9h23.1v15.7h-23.1V2012.9z M1046.8,2035.8h23.1v60.2h-23.1V2035.8z"/>
			<path class="st6" d="M1085.4,2012.9h23.1v83.1h-23.1V2012.9z"/>
			<path class="st6" d="M1190,2071.6h-46.2c0.4,3.7,1.4,6.5,3,8.3c2.2,2.6,5.1,3.9,8.7,3.9c2.3,0,4.4-0.6,6.5-1.7
				c1.2-0.7,2.6-2,4-3.8l22.7,2.1c-3.5,6-7.7,10.4-12.6,13c-4.9,2.6-12,3.9-21.1,3.9c-8,0-14.2-1.1-18.8-3.4
				c-4.6-2.2-8.4-5.8-11.4-10.7c-3-4.9-4.5-10.6-4.5-17.3c0-9.4,3-17,9-22.8c6-5.8,14.3-8.7,25-8.7c8.6,0,15.4,1.3,20.4,3.9
				c5,2.6,8.8,6.4,11.4,11.3c2.6,4.9,3.9,11.4,3.9,19.3V2071.6z M1166.5,2060.6c-0.5-4.5-1.7-7.7-3.6-9.6c-1.9-1.9-4.5-2.9-7.7-2.9
				c-3.7,0-6.6,1.5-8.8,4.4c-1.4,1.8-2.3,4.5-2.7,8.1H1166.5z"/>
		</g>
	</g>
</g>
<g id="Layer_5" class="st0">
	<g class="st1">
		<g>
			<path class="st6" d="M394.9,1926.3c0,0-2.9-44.9-21.5-64.9c25.9,67.4-9.4,88.9-9.8,89.1l0.4-0.7c3.2-4.9,22.1-36.8,4.6-76.9
				c12.5,67.6-33.6,89.1-34.2,89.4c41-36.6,31.8-96.9-8.5-127.2c-15.2-21.5-68.4-28.3-99.3,0.1c0.2-0.4,12.1-27.1,69.2-26.3
				c-23.1-3.2-41-0.1-41.6,0c0,0,0,0,0,0c78.1-25.4,140.8,26.1,142.1,95.8C396.6,1911.9,396.1,1919,394.9,1926.3z"/>
			<path class="st6" d="M312.9,2015.5c-10.4,0.7-21.3-0.5-32.3-4c22,0.7,53.4-1.9,70.1-24.4c-21,19.3-75.2,25.7-101.3,3.7
				c4.4,2.3,12.1,4.5,20.9,6l0.6,0.1c17.4,2.8,39.3,3,50.6-3.7c-32.5,5.4-65.6-8-81.7-33.5c39.6,38.3,93.2,30.2,123.7-9.1l0,0
				c0.4-0.2,35.8-21.7,9.8-89.1c18.6,20,21.5,64.9,21.5,64.9c1.2-7.3,1.6-14.5,1.5-21.4l0,0.1C406.3,1957,367.1,2011.8,312.9,2015.5
				z"/>
			<path class="st6" d="M280.6,2011.5c11.1,3.5,21.9,4.7,32.3,4c-74.5,20.4-124.5-35.4-129.2-83.9c0,0,0,0,0,0
				c-0.9-9.7-0.1-19,2.7-27.4c-0.7,35.4,11.2,57.4,29.1,73.2c-22.8-30.4-32.3-64-8.8-105.7c-4.1,14.1-6.4,27.1-6.3,39.5v0
				c0.1,12.1,2.6,23.6,8.3,35c-5.5-36.9,5-63.1,27.4-81.3c-39.6,53.5-16.9,112.1,34.1,132c-8.9-1.5-16.5-3.7-20.9-6
				c26.1,22,80.3,15.6,101.3-3.7C334,2009.7,302.6,2012.2,280.6,2011.5z"/>
			<path class="st6" d="M336.5,1860.8c-61.7-52.2-131.5-7.8-136.1,50.3c-0.1-12.3,2.2-25.3,6.3-39.5c-23.5,41.7-14,75.3,8.8,105.7
				c-17.9-15.8-29.9-37.7-29.1-73.2c-2.8,8.4-3.7,17.8-2.7,27.4c-15.9-56.2,22-113.8,70.7-122.5c0,0,0,0,0,0
				c0.6-0.1,18.5-3.2,41.6,0c-57.1-0.8-69,25.8-69.2,26.3c30.8-28.5,84-21.7,99.3-0.1c-26.5-15.3-50.6-17.5-71.8-5.3
				C288.6,1825,316.9,1833.5,336.5,1860.8z"/>
		</g>
		<g>
			<path class="st6" d="M489.7,1870.3h24.9v43.7c0,9.2-0.8,16.2-2.4,20.9c-1.6,4.8-4.9,8.8-9.8,12.2c-4.9,3.3-11.2,5-18.9,5
				c-8.1,0-14.4-1.1-18.9-3.3s-7.9-5.4-10.3-9.6c-2.4-4.2-3.9-9.4-4.3-15.7l23.8-3.2c0,3.5,0.3,6.2,0.9,7.9c0.6,1.7,1.6,3.1,3,4.2
				c1,0.7,2.3,1,4.1,1c2.8,0,4.8-1,6.1-3.1c1.3-2.1,1.9-5.5,1.9-10.4V1870.3z"/>
			<path class="st6" d="M548.2,1911.3l-21.3-2.3c0.8-3.7,2-6.7,3.5-8.8c1.5-2.1,3.7-4,6.6-5.6c2-1.1,4.9-2,8.5-2.6
				c3.6-0.6,7.5-0.9,11.6-0.9c6.7,0,12.1,0.4,16.1,1.1c4.1,0.8,7.4,2.3,10.2,4.7c1.9,1.6,3.4,4,4.5,7c1.1,3,1.6,5.9,1.6,8.6v25.7
				c0,2.7,0.2,4.9,0.5,6.4c0.3,1.6,1.1,3.5,2.3,6h-21c-0.8-1.5-1.4-2.6-1.6-3.4s-0.5-2-0.8-3.7c-2.9,2.8-5.8,4.8-8.7,6
				c-4,1.6-8.5,2.4-13.8,2.4c-7,0-12.2-1.6-15.8-4.8c-3.6-3.2-5.4-7.2-5.4-11.9c0-4.4,1.3-8.1,3.9-10.9c2.6-2.9,7.4-5,14.4-6.4
				c8.4-1.7,13.8-2.9,16.3-3.5c2.5-0.7,5.1-1.6,7.9-2.7c0-2.7-0.6-4.7-1.7-5.8s-3.1-1.6-6-1.6c-3.7,0-6.4,0.6-8.2,1.8
				C550.2,1907.1,549.1,1908.8,548.2,1911.3z M567.5,1923c-3.1,1.1-6.3,2.1-9.6,2.9c-4.5,1.2-7.4,2.4-8.6,3.6
				c-1.2,1.2-1.9,2.6-1.9,4.1c0,1.8,0.6,3.2,1.8,4.3c1.2,1.1,3,1.7,5.4,1.7c2.5,0,4.8-0.6,6.9-1.8c2.1-1.2,3.7-2.7,4.6-4.4
				c0.9-1.7,1.3-4,1.3-6.8V1923z"/>
			<path class="st6" d="M627.8,1870.3v22.2h12.3v16.4h-12.3v20.6c0,2.5,0.2,4.1,0.7,4.9c0.7,1.2,2,1.9,3.8,1.9c1.6,0,4-0.5,6.9-1.4
				l1.6,15.4c-5.5,1.2-10.7,1.8-15.5,1.8c-5.6,0-9.7-0.7-12.3-2.1c-2.6-1.4-4.6-3.6-5.8-6.5c-1.3-2.9-1.9-7.6-1.9-14.1v-20.5h-8.2
				v-16.4h8.2v-10.7L627.8,1870.3z"/>
			<path class="st6" d="M651.6,1870.3h22.3v15.2h-22.3V1870.3z M651.6,1892.4h22.3v58.3h-22.3V1892.4z"/>
			<path class="st6" d="M684.2,1934.5l22.2-2.1c0.9,2.6,2.2,4.5,3.8,5.7c1.6,1.1,3.8,1.7,6.6,1.7c3,0,5.3-0.6,7-1.9
				c1.3-0.9,1.9-2.1,1.9-3.6c0-1.6-0.8-2.8-2.5-3.7c-1.2-0.6-4.4-1.4-9.6-2.3c-7.8-1.4-13.1-2.6-16.2-3.8c-3-1.2-5.6-3.1-7.6-5.8
				c-2.1-2.7-3.1-5.9-3.1-9.4c0-3.8,1.1-7.1,3.3-9.9c2.2-2.8,5.3-4.9,9.2-6.2c3.9-1.4,9.2-2.1,15.7-2.1c6.9,0,12.1,0.5,15.4,1.6
				c3.3,1.1,6.1,2.7,8.3,4.9c2.2,2.2,4.1,5.2,5.5,9.1l-21.2,2.1c-0.5-1.9-1.5-3.2-2.7-4.1c-1.8-1.2-3.9-1.8-6.4-1.8
				c-2.5,0-4.4,0.4-5.5,1.3c-1.2,0.9-1.7,2-1.7,3.3c0,1.4,0.7,2.5,2.2,3.2c1.5,0.7,4.6,1.4,9.5,2c7.4,0.8,13,2,16.6,3.5
				c3.6,1.5,6.4,3.6,8.3,6.4c1.9,2.8,2.9,5.8,2.9,9.2c0,3.4-1,6.6-3,9.8c-2,3.2-5.2,5.7-9.6,7.6c-4.4,1.9-10.3,2.8-17.9,2.8
				c-10.6,0-18.2-1.5-22.7-4.6C688.4,1944.4,685.5,1940.1,684.2,1934.5z"/>
			<path class="st6" d="M791.7,1870.3h32.7l12.6,48.9l12.5-48.9h32.7v80.4h-20.4v-61.3l-15.7,61.3h-18.4l-15.7-61.3v61.3h-20.4
				V1870.3z"/>
			<path class="st6" d="M893.8,1921.7c0-8.9,3-16.2,9-22c6-5.8,14.1-8.6,24.3-8.6c11.7,0,20.5,3.4,26.4,10.1
				c4.8,5.5,7.2,12.2,7.2,20.1c0,9-3,16.3-8.9,22c-5.9,5.7-14.2,8.6-24.7,8.6c-9.4,0-16.9-2.4-22.7-7.1
				C897.4,1939,893.8,1931.3,893.8,1921.7z M916.2,1921.7c0,5.2,1.1,9,3.2,11.5c2.1,2.5,4.7,3.7,7.9,3.7c3.2,0,5.9-1.2,7.9-3.7
				c2.1-2.5,3.1-6.4,3.1-11.8c0-5-1-8.8-3.1-11.3s-4.7-3.7-7.7-3.7c-3.3,0-5.9,1.3-8.1,3.8C917.3,1912.7,916.2,1916.5,916.2,1921.7z
				"/>
			<path class="st6" d="M971.6,1870.3h22.6v27.9c2.2-2.3,4.8-4.1,7.6-5.3c2.8-1.2,6-1.8,9.4-1.8c7.1,0,13,2.6,17.6,7.7
				c4.6,5.1,7,12.4,7,22c0,6.4-1.1,12-3.2,16.8c-2.1,4.8-5.1,8.5-8.8,10.9c-3.7,2.4-7.9,3.6-12.5,3.6c-3.9,0-7.5-0.8-10.8-2.5
				c-2.5-1.3-5.1-3.8-8-7.4v8.6h-20.9V1870.3z M994,1921.4c0,5,0.9,8.6,2.8,10.9c1.9,2.3,4.3,3.4,7.2,3.4c2.7,0,4.9-1.1,6.7-3.3
				c1.8-2.2,2.7-5.9,2.7-11.2c0-4.6-0.9-8-2.7-10.1s-3.9-3.2-6.4-3.2c-3,0-5.5,1.1-7.4,3.4C995,1913.4,994,1916.8,994,1921.4z"/>
			<path class="st6" d="M1047.3,1870.3h22.3v15.2h-22.3V1870.3z M1047.3,1892.4h22.3v58.3h-22.3V1892.4z"/>
			<path class="st6" d="M1084.7,1870.3h22.4v80.4h-22.4V1870.3z"/>
			<path class="st6" d="M1186,1927.1h-44.8c0.4,3.6,1.4,6.3,2.9,8c2.2,2.5,5,3.8,8.5,3.8c2.2,0,4.3-0.5,6.3-1.6
				c1.2-0.7,2.5-1.9,3.9-3.7l22,2c-3.4,5.9-7.4,10.1-12.2,12.6c-4.8,2.5-11.6,3.8-20.5,3.8c-7.7,0-13.8-1.1-18.2-3.3
				c-4.4-2.2-8.1-5.6-11-10.4c-2.9-4.7-4.4-10.3-4.4-16.7c0-9.1,2.9-16.5,8.8-22.1c5.8-5.6,13.9-8.4,24.2-8.4
				c8.3,0,14.9,1.3,19.8,3.8c4.8,2.5,8.5,6.2,11,11c2.5,4.8,3.8,11,3.8,18.7V1927.1z M1163.3,1916.4c-0.4-4.3-1.6-7.4-3.5-9.3
				c-1.9-1.9-4.4-2.8-7.4-2.8c-3.5,0-6.4,1.4-8.5,4.2c-1.4,1.8-2.2,4.4-2.6,7.8H1163.3z"/>
		</g>
	</g>
	<g class="st1">
		<g>
			<path class="st6" d="M395.5,2275.7c0,0-2.4-37.3-17.9-53.9c21.5,55.9-7.8,73.8-8.2,74l0.4-0.5c2.6-4.1,18.3-30.5,3.8-63.9
				c10.3,56.2-27.9,74-28.4,74.3c34-30.4,26.4-80.4-7-105.6c-12.7-17.9-56.8-23.5-82.4,0.1c0.1-0.3,10.1-22.5,57.5-21.8
				c-19.2-2.6-34-0.1-34.5,0c0,0,0,0,0,0c64.8-21.1,116.9,21.6,118,79.5C396.8,2263.7,396.4,2269.7,395.5,2275.7z"/>
			<path class="st6" d="M327.4,2349.8c-8.6,0.6-17.7-0.4-26.8-3.3c18.3,0.6,44.3-1.5,58.2-20.3c-17.4,16-62.4,21.4-84.1,3.1
				c3.7,1.9,10,3.7,17.4,5l0.5,0.1c14.5,2.4,32.6,2.5,42-3.1c-27,4.5-54.5-6.6-67.8-27.8c32.9,31.8,77.4,25,102.7-7.6l0,0
				c0.3-0.2,29.7-18,8.2-74c15.5,16.6,17.9,53.9,17.9,53.9c1-6.1,1.4-12,1.3-17.8l0,0.1C404.9,2301.2,372.3,2346.8,327.4,2349.8z"/>
			<path class="st6" d="M300.5,2346.5c9.2,2.9,18.2,3.9,26.8,3.3c-61.8,16.9-103.4-29.4-107.3-69.7c0,0,0,0,0,0
				c-0.8-8-0.1-15.8,2.3-22.8c-0.6,29.4,9.3,47.7,24.2,60.8c-19-25.2-26.8-53.1-7.3-87.8c-3.4,11.7-5.3,22.5-5.2,32.8v0
				c0.1,10.1,2.2,19.6,6.9,29.1c-4.6-30.7,4.2-52.4,22.8-67.5c-32.9,44.4-14.1,93.1,28.4,109.6c-7.4-1.2-13.7-3-17.4-5
				c21.7,18.3,66.7,12.9,84.1-3.1C344.8,2344.9,318.8,2347,300.5,2346.5z"/>
			<path class="st6" d="M346.9,2221.3c-51.2-43.3-109.1-6.5-113,41.8c-0.1-10.2,1.9-21,5.2-32.8c-19.5,34.6-11.7,62.6,7.3,87.8
				c-14.9-13.1-24.8-31.3-24.2-60.8c-2.3,7-3,14.8-2.3,22.8c-13.2-46.7,18.3-94.5,58.7-101.7c0,0,0,0,0,0c0.5-0.1,15.4-2.6,34.5,0
				c-47.4-0.7-57.3,21.5-57.5,21.8c25.6-23.6,69.8-18,82.4-0.1c-22-12.7-42-14.5-59.6-4.4C307.2,2191.7,330.7,2198.7,346.9,2221.3z"
				/>
		</g>
		<g>
			<path class="st6" d="M489.7,2222.3h24.9v43.7c0,9.2-0.8,16.2-2.4,20.9c-1.6,4.8-4.9,8.8-9.8,12.2c-4.9,3.3-11.2,5-18.9,5
				c-8.1,0-14.4-1.1-18.9-3.3c-4.5-2.2-7.9-5.4-10.3-9.6c-2.4-4.2-3.9-9.4-4.3-15.7l23.8-3.2c0,3.5,0.3,6.2,0.9,7.9
				c0.6,1.7,1.6,3.1,3,4.2c1,0.7,2.3,1,4.1,1c2.8,0,4.8-1,6.1-3.1c1.3-2.1,1.9-5.5,1.9-10.4V2222.3z"/>
			<path class="st6" d="M548.2,2263.3l-21.3-2.3c0.8-3.7,2-6.7,3.5-8.8c1.5-2.1,3.7-4,6.6-5.6c2-1.1,4.9-2,8.5-2.6
				c3.6-0.6,7.5-0.9,11.6-0.9c6.7,0,12.1,0.4,16.1,1.1c4.1,0.8,7.4,2.3,10.2,4.7c1.9,1.6,3.4,4,4.5,7c1.1,3,1.6,5.9,1.6,8.6v25.7
				c0,2.7,0.2,4.9,0.5,6.4c0.3,1.6,1.1,3.5,2.3,6h-21c-0.8-1.5-1.4-2.6-1.6-3.4s-0.5-2-0.8-3.7c-2.9,2.8-5.8,4.8-8.7,6
				c-4,1.6-8.5,2.4-13.8,2.4c-7,0-12.2-1.6-15.8-4.8c-3.6-3.2-5.4-7.2-5.4-11.9c0-4.4,1.3-8.1,3.9-10.9c2.6-2.9,7.4-5,14.4-6.4
				c8.4-1.7,13.8-2.9,16.3-3.5c2.5-0.7,5.1-1.6,7.9-2.7c0-2.7-0.6-4.7-1.7-5.8c-1.1-1.1-3.1-1.6-6-1.6c-3.7,0-6.4,0.6-8.2,1.8
				C550.2,2259.1,549.1,2260.8,548.2,2263.3z M567.5,2275c-3.1,1.1-6.3,2.1-9.6,2.9c-4.5,1.2-7.4,2.4-8.6,3.6
				c-1.2,1.2-1.9,2.6-1.9,4.1c0,1.8,0.6,3.2,1.8,4.3c1.2,1.1,3,1.7,5.4,1.7c2.5,0,4.8-0.6,6.9-1.8c2.1-1.2,3.7-2.7,4.6-4.4
				c0.9-1.7,1.3-4,1.3-6.8V2275z"/>
			<path class="st6" d="M627.8,2222.3v22.2h12.3v16.4h-12.3v20.6c0,2.5,0.2,4.1,0.7,4.9c0.7,1.2,2,1.9,3.8,1.9c1.6,0,4-0.5,6.9-1.4
				l1.6,15.4c-5.5,1.2-10.7,1.8-15.5,1.8c-5.6,0-9.7-0.7-12.3-2.1c-2.6-1.4-4.6-3.6-5.8-6.5c-1.3-2.9-1.9-7.6-1.9-14.1v-20.5h-8.2
				v-16.4h8.2v-10.7L627.8,2222.3z"/>
			<path class="st6" d="M651.6,2222.3h22.3v15.2h-22.3V2222.3z M651.6,2244.4h22.3v58.3h-22.3V2244.4z"/>
			<path class="st6" d="M684.2,2286.5l22.2-2.1c0.9,2.6,2.2,4.5,3.8,5.7c1.6,1.1,3.8,1.7,6.6,1.7c3,0,5.3-0.6,7-1.9
				c1.3-0.9,1.9-2.1,1.9-3.6c0-1.6-0.8-2.8-2.5-3.7c-1.2-0.6-4.4-1.4-9.6-2.3c-7.8-1.4-13.1-2.6-16.2-3.8c-3-1.2-5.6-3.1-7.6-5.8
				c-2.1-2.7-3.1-5.9-3.1-9.4c0-3.8,1.1-7.1,3.3-9.9c2.2-2.8,5.3-4.9,9.2-6.2c3.9-1.4,9.2-2.1,15.7-2.1c6.9,0,12.1,0.5,15.4,1.6
				c3.3,1.1,6.1,2.7,8.3,4.9c2.2,2.2,4.1,5.2,5.5,9.1l-21.2,2.1c-0.5-1.9-1.5-3.2-2.7-4.1c-1.8-1.2-3.9-1.8-6.4-1.8
				c-2.5,0-4.4,0.4-5.5,1.3c-1.2,0.9-1.7,2-1.7,3.3c0,1.4,0.7,2.5,2.2,3.2s4.6,1.4,9.5,2c7.4,0.8,13,2,16.6,3.5
				c3.6,1.5,6.4,3.6,8.3,6.4c1.9,2.8,2.9,5.8,2.9,9.2c0,3.4-1,6.6-3,9.8c-2,3.2-5.2,5.7-9.6,7.6c-4.4,1.9-10.3,2.8-17.9,2.8
				c-10.6,0-18.2-1.5-22.7-4.6C688.4,2296.4,685.5,2292.1,684.2,2286.5z"/>
			<path class="st6" d="M791.7,2222.3h32.7l12.6,48.9l12.5-48.9h32.7v80.4h-20.4v-61.3l-15.7,61.3h-18.4l-15.7-61.3v61.3h-20.4
				V2222.3z"/>
			<path class="st6" d="M893.8,2273.7c0-8.9,3-16.2,9-22c6-5.8,14.1-8.6,24.3-8.6c11.7,0,20.5,3.4,26.4,10.1
				c4.8,5.5,7.2,12.2,7.2,20.1c0,9-3,16.3-8.9,22c-5.9,5.7-14.2,8.6-24.7,8.6c-9.4,0-16.9-2.4-22.7-7.1
				C897.4,2291,893.8,2283.3,893.8,2273.7z M916.2,2273.7c0,5.2,1.1,9,3.2,11.5c2.1,2.5,4.7,3.7,7.9,3.7c3.2,0,5.9-1.2,7.9-3.7
				c2.1-2.5,3.1-6.4,3.1-11.8c0-5-1-8.8-3.1-11.3c-2.1-2.5-4.7-3.7-7.7-3.7c-3.3,0-5.9,1.3-8.1,3.8
				C917.3,2264.7,916.2,2268.5,916.2,2273.7z"/>
			<path class="st6" d="M971.6,2222.3h22.6v27.9c2.2-2.3,4.8-4.1,7.6-5.3c2.8-1.2,6-1.8,9.4-1.8c7.1,0,13,2.6,17.6,7.7
				c4.6,5.1,7,12.4,7,22c0,6.4-1.1,12-3.2,16.8c-2.1,4.8-5.1,8.5-8.8,10.9s-7.9,3.6-12.5,3.6c-3.9,0-7.5-0.8-10.8-2.5
				c-2.5-1.3-5.1-3.8-8-7.4v8.6h-20.9V2222.3z M994,2273.4c0,5,0.9,8.6,2.8,10.9c1.9,2.3,4.3,3.4,7.2,3.4c2.7,0,4.9-1.1,6.7-3.3
				c1.8-2.2,2.7-5.9,2.7-11.2c0-4.6-0.9-8-2.7-10.1s-3.9-3.2-6.4-3.2c-3,0-5.5,1.1-7.4,3.4S994,2268.8,994,2273.4z"/>
			<path class="st6" d="M1047.3,2222.3h22.3v15.2h-22.3V2222.3z M1047.3,2244.4h22.3v58.3h-22.3V2244.4z"/>
			<path class="st6" d="M1084.7,2222.3h22.4v80.4h-22.4V2222.3z"/>
			<path class="st6" d="M1186,2279.1h-44.8c0.4,3.6,1.4,6.3,2.9,8c2.2,2.5,5,3.8,8.5,3.8c2.2,0,4.3-0.5,6.3-1.6
				c1.2-0.7,2.5-1.9,3.9-3.7l22,2c-3.4,5.9-7.4,10.1-12.2,12.6c-4.8,2.5-11.6,3.8-20.5,3.8c-7.7,0-13.8-1.1-18.2-3.3
				c-4.4-2.2-8.1-5.6-11-10.4c-2.9-4.7-4.4-10.3-4.4-16.7c0-9.1,2.9-16.5,8.8-22.1c5.8-5.6,13.9-8.4,24.2-8.4
				c8.3,0,14.9,1.3,19.8,3.8c4.8,2.5,8.5,6.2,11,11c2.5,4.8,3.8,11,3.8,18.7V2279.1z M1163.3,2268.4c-0.4-4.3-1.6-7.4-3.5-9.3
				c-1.9-1.9-4.4-2.8-7.4-2.8c-3.5,0-6.4,1.4-8.5,4.2c-1.4,1.8-2.2,4.4-2.6,7.8H1163.3z"/>
		</g>
	</g>
</g>
</svg>
